<?xml version="1.0" encoding="UTF-8"?>
<!DOCTYPE svg PUBLIC "-//W3C//DTD SVG 1.1//EN" "http://www.w3.org/Graphics/SVG/1.1/DTD/svg11.dtd">
<svg xmlns="http://www.w3.org/2000/svg" version="1.1" width="728px" height="90px" style="shape-rendering:geometricPrecision; text-rendering:geometricPrecision; image-rendering:optimizeQuality; fill-rule:evenodd; clip-rule:evenodd" xmlns:xlink="http://www.w3.org/1999/xlink">
<g><path style="opacity:1" fill="#c7c7c8" d="M -0.5,-0.5 C 242.167,-0.5 484.833,-0.5 727.5,-0.5C 727.5,29.5 727.5,59.5 727.5,89.5C 484.833,89.5 242.167,89.5 -0.5,89.5C -0.5,59.5 -0.5,29.5 -0.5,-0.5 Z"/></g>
<g><path style="opacity:1" fill="#f7f6f4" d="M 53.5,0.5 C 53.0825,1.22158 52.4158,1.72158 51.5,2C 51.8333,2.33333 52.1667,2.66667 52.5,3C 51.7734,4.39881 51.2734,5.89881 51,7.5C 49.7361,7.36014 48.5695,7.36014 47.5,7.5C 48.5901,9.00296 49.7567,9.33629 51,8.5C 51.6449,9.646 52.4783,10.646 53.5,11.5C 52.4783,12.354 51.6449,13.354 51,14.5C 50.6667,13.8333 50.3333,13.1667 50,12.5C 49.2276,13.8491 48.0609,14.6824 46.5,15C 48.0368,16.1096 48.7035,17.6096 48.5,19.5C 49.8056,21.8162 51.1389,24.1495 52.5,26.5C 50.7354,27.4614 48.7354,27.7947 46.5,27.5C 45.5178,26.8592 44.5178,26.1925 43.5,25.5C 42.6184,26.7598 41.6184,27.9264 40.5,29C 42.0414,30.3712 43.3747,31.8712 44.5,33.5C 44.6085,35.5138 43.9418,37.1805 42.5,38.5C 40.9668,37.5691 39.3002,36.9024 37.5,36.5C 35.7336,36.4342 34.7336,37.2676 34.5,39C 36.4924,40.9982 38.8257,42.4982 41.5,43.5C 41.0825,44.2216 40.4158,44.7216 39.5,45C 40.8333,45.3333 42.1667,45.6667 43.5,46C 43,46.5 42.5,47 42,47.5C 40.7012,47.0338 39.2012,47.0338 37.5,47.5C 35.5,47.5 33.5,47.5 31.5,47.5C 31.1826,50.5465 32.5159,52.2132 35.5,52.5C 34.9285,54.36 34.9285,56.0267 35.5,57.5C 33.8333,57.5 32.1667,57.5 30.5,57.5C 28.7,56.3948 27.5334,57.0614 27,59.5C 26.8091,57.2922 26.3091,55.2922 25.5,53.5C 24.0813,52.5489 22.4147,52.2155 20.5,52.5C 20.5,59.1667 20.5,65.8333 20.5,72.5C 31.8333,72.5 43.1667,72.5 54.5,72.5C 52.9855,73.9514 52.1522,75.618 52,77.5C 51.1627,75.9926 49.9961,75.4926 48.5,76C 49.2797,77.073 49.113,78.2396 48,79.5C 47,78.1667 46,76.8333 45,75.5C 43.1971,77.4845 42.1971,79.4845 42,81.5C 39.4684,79.4411 36.8017,78.4411 34,78.5C 34.2707,80.7409 33.2707,82.7409 31,84.5C 29.6054,83.1854 28.6054,83.5188 28,85.5C 25.1867,81.5685 23.52,82.2352 23,87.5C 22.6667,86.5 22.3333,85.5 22,84.5C 19.8606,82.9655 17.8606,81.2988 16,79.5C 15.5172,80.448 15.3505,81.448 15.5,82.5C 18.2048,82.3802 18.8715,83.3802 17.5,85.5C 18.0253,86.1924 18.6919,86.6924 19.5,87C 18.2625,87.2321 17.2625,87.7321 16.5,88.5C 11.1667,88.5 5.83333,88.5 0.5,88.5C 0.5,59.1667 0.5,29.8333 0.5,0.5C 18.1667,0.5 35.8333,0.5 53.5,0.5 Z"/></g>
<g><path style="opacity:1" fill="#efeeeb" d="M 53.5,0.5 C 72.5,0.5 91.5,0.5 110.5,0.5C 110.369,1.23891 110.536,1.90558 111,2.5C 111.893,1.28882 112.726,1.28882 113.5,2.5C 112.674,3.45104 112.508,4.45104 113,5.5C 114.131,4.39612 114.965,4.72945 115.5,6.5C 115.697,8.47964 115.03,10.4796 113.5,12.5C 113.977,13.4776 114.643,14.3109 115.5,15C 113.96,16.8511 112.46,18.0178 111,18.5C 110.25,17.8742 109.416,17.3742 108.5,17C 109.654,16.0862 109.487,15.2529 108,14.5C 107.539,17.0907 108.372,19.2573 110.5,21C 108.414,21.3153 106.414,21.8153 104.5,22.5C 102.335,22.1159 100.668,22.7826 99.5,24.5C 99.6667,24.8333 99.8333,25.1667 100,25.5C 101.11,23.9632 102.61,23.2965 104.5,23.5C 104.483,25.5648 104.15,27.5648 103.5,29.5C 101.833,30.5 100.5,31.8333 99.5,33.5C 102.832,34.0823 106.166,34.9156 109.5,36C 108.167,37 106.833,38 105.5,39C 106.328,39.9147 107.328,40.5814 108.5,41C 107.944,41.3826 107.611,41.8826 107.5,42.5C 106.5,42.5 105.5,42.5 104.5,42.5C 103.899,48.196 102.899,48.5293 101.5,43.5C 100.833,42.1667 100.167,42.1667 99.5,43.5C 100.577,45.7294 101.244,48.0628 101.5,50.5C 102.5,50.5 103.5,50.5 104.5,50.5C 105.239,50.369 105.906,50.5357 106.5,51C 105.545,52.7175 104.545,54.3842 103.5,56C 106.167,56.6667 106.167,57.3333 103.5,58C 104.056,58.3826 104.389,58.8826 104.5,59.5C 103.167,59.5 101.833,59.5 100.5,59.5C 100.5,62.1667 100.5,64.8333 100.5,67.5C 101.808,68.2323 103.142,69.0656 104.5,70C 103.809,71.0674 103.309,72.2341 103,73.5C 102.444,71.4049 101.944,71.2382 101.5,73C 102.927,74.7002 103.76,76.5335 104,78.5C 102.853,79.4581 101.853,79.1247 101,77.5C 100.692,78.3081 100.192,78.9747 99.5,79.5C 99.0894,78.7376 98.9227,77.7376 99,76.5C 98.1475,78.1247 97.1475,78.4581 96,77.5C 95.5581,79.6785 94.5581,80.3452 93,79.5C 92.5172,80.448 92.3505,81.448 92.5,82.5C 90.5229,83.1495 88.6895,83.1495 87,82.5C 86.0546,82.9054 85.3879,83.572 85,84.5C 84.3086,82.1088 83.3086,82.1088 82,84.5C 81.6667,83.8333 81.3333,83.1667 81,82.5C 80.4275,84.6406 79.5942,86.6406 78.5,88.5C 57.8333,88.5 37.1667,88.5 16.5,88.5C 17.2625,87.7321 18.2625,87.2321 19.5,87C 18.6919,86.6924 18.0253,86.1924 17.5,85.5C 18.8715,83.3802 18.2048,82.3802 15.5,82.5C 15.3505,81.448 15.5172,80.448 16,79.5C 17.8606,81.2988 19.8606,82.9655 22,84.5C 22.3333,85.5 22.6667,86.5 23,87.5C 23.52,82.2352 25.1867,81.5685 28,85.5C 28.6054,83.5188 29.6054,83.1854 31,84.5C 33.2707,82.7409 34.2707,80.7409 34,78.5C 36.8017,78.4411 39.4684,79.4411 42,81.5C 42.1971,79.4845 43.1971,77.4845 45,75.5C 46,76.8333 47,78.1667 48,79.5C 49.113,78.2396 49.2797,77.073 48.5,76C 49.9961,75.4926 51.1627,75.9926 52,77.5C 52.1522,75.618 52.9855,73.9514 54.5,72.5C 57.8333,72.5 61.1667,72.5 64.5,72.5C 64.5,65.8333 64.5,59.1667 64.5,52.5C 62.8333,52.5 61.1667,52.5 59.5,52.5C 59.5,57.5 59.5,62.5 59.5,67.5C 48.1667,67.5 36.8333,67.5 25.5,67.5C 25.5,62.8333 25.5,58.1667 25.5,53.5C 26.3091,55.2922 26.8091,57.2922 27,59.5C 27.5334,57.0614 28.7,56.3948 30.5,57.5C 30.5,57.8333 30.5,58.1667 30.5,58.5C 30.5,59.8333 30.5,61.1667 30.5,62.5C 38.5,62.5 46.5,62.5 54.5,62.5C 55.4511,61.0813 55.7845,59.4147 55.5,57.5C 48.8333,57.5 42.1667,57.5 35.5,57.5C 34.9285,56.0267 34.9285,54.36 35.5,52.5C 41.6234,54.1552 47.79,55.4885 54,56.5C 55.2692,55.0953 55.7692,53.4286 55.5,51.5C 49.3019,50.5296 43.3019,49.1962 37.5,47.5C 39.2012,47.0338 40.7012,47.0338 42,47.5C 42.5,47 43,46.5 43.5,46C 42.1667,45.6667 40.8333,45.3333 39.5,45C 40.4158,44.7216 41.0825,44.2216 41.5,43.5C 46.2778,45.9272 51.1112,48.2605 56,50.5C 57.5053,48.7017 57.6719,46.8684 56.5,45C 51.6226,43.0582 46.9559,40.8915 42.5,38.5C 43.9418,37.1805 44.6085,35.5138 44.5,33.5C 49.5429,36.7846 54.3762,40.4512 59,44.5C 60.0217,43.646 60.8551,42.646 61.5,41.5C 56.4797,36.8116 51.4797,32.1449 46.5,27.5C 48.7354,27.7947 50.7354,27.4614 52.5,26.5C 55.9342,30.5057 59.2675,34.6724 62.5,39C 65,39.1667 66.1667,38 66,35.5C 61.3333,29.5 56.6667,23.5 52,17.5C 51.1841,18.8228 50.0174,19.4894 48.5,19.5C 48.7035,17.6096 48.0368,16.1096 46.5,15C 48.0609,14.6824 49.2276,13.8491 50,12.5C 50.3333,13.1667 50.6667,13.8333 51,14.5C 51.6449,13.354 52.4783,12.354 53.5,11.5C 52.4783,10.646 51.6449,9.646 51,8.5C 49.7567,9.33629 48.5901,9.00296 47.5,7.5C 48.5695,7.36014 49.7361,7.36014 51,7.5C 51.2734,5.89881 51.7734,4.39881 52.5,3C 52.1667,2.66667 51.8333,2.33333 51.5,2C 52.4158,1.72158 53.0825,1.22158 53.5,0.5 Z"/></g>
<g><path style="opacity:1" fill="#fefefe" d="M 189.5,0.5 C 210.673,0.169407 231.673,0.502741 252.5,1.5C 248.296,4.67956 247.463,8.67956 250,13.5C 255.15,17.8834 261.15,19.8834 268,19.5C 272.701,19.7206 277.201,18.8873 281.5,17C 289.848,11.9773 298.181,6.97726 306.5,2C 304.866,1.50649 303.199,1.33982 301.5,1.5C 342.33,0.50138 383.33,0.168047 424.5,0.5C 388.694,21.5728 352.694,42.4062 316.5,63C 306.097,65.9339 296.43,64.4339 287.5,58.5C 254.833,39.1667 222.167,19.8333 189.5,0.5 Z"/></g>
<g><path style="opacity:1" fill="#917be6" d="M 301.5,1.5 C 303.199,1.33982 304.866,1.50649 306.5,2C 298.181,6.97726 289.848,11.9773 281.5,17C 277.201,18.8873 272.701,19.7206 268,19.5C 261.15,19.8834 255.15,17.8834 250,13.5C 247.463,8.67956 248.296,4.67956 252.5,1.5C 268.804,0.179864 285.137,0.179864 301.5,1.5 Z"/></g>
<g><path style="opacity:1" fill="#fefefe" d="M 465.5,0.5 C 471.167,0.5 476.833,0.5 482.5,0.5C 498.298,9.23341 513.964,18.2334 529.5,27.5C 491.833,27.5 454.167,27.5 416.5,27.5C 432.138,17.1858 448.471,8.18583 465.5,0.5 Z"/></g>
<g><path style="opacity:1" fill="#e7e5e1" d="M 482.5,0.5 C 497.167,0.5 511.833,0.5 526.5,0.5C 541.666,9.24844 556.666,18.2484 571.5,27.5C 557.5,27.5 543.5,27.5 529.5,27.5C 513.964,18.2334 498.298,9.23341 482.5,0.5 Z"/></g>
<g><path style="opacity:1" fill="#fdfefe" d="M 526.5,0.5 C 541.167,0.5 555.833,0.5 570.5,0.5C 575.052,7.55139 581.052,13.0514 588.5,17C 597.606,21.4199 606.939,24.9199 616.5,27.5C 601.5,27.5 586.5,27.5 571.5,27.5C 556.666,18.2484 541.666,9.24844 526.5,0.5 Z"/></g>
<g><path style="opacity:1" fill="#47f7a2" d="M 570.5,0.5 C 599.833,0.5 629.167,0.5 658.5,0.5C 669.259,6.73976 679.925,13.2398 690.5,20C 687.352,21.4235 684.352,22.9235 681.5,24.5C 677.239,24.8984 673.239,25.8984 669.5,27.5C 656.563,29.1644 643.563,29.8311 630.5,29.5C 626.285,27.5636 621.619,26.8969 616.5,27.5C 606.939,24.9199 597.606,21.4199 588.5,17C 581.052,13.0514 575.052,7.55139 570.5,0.5 Z"/></g>
<g><path style="opacity:1" fill="#fdfefd" d="M 658.5,0.5 C 662.931,0.230706 667.265,0.564039 671.5,1.5C 680.241,6.62163 689.074,11.6216 698,16.5C 705.288,12.7097 711.122,7.37636 715.5,0.5C 719.167,0.5 722.833,0.5 726.5,0.5C 726.5,6.83333 726.5,13.1667 726.5,19.5C 718.082,24.7077 709.415,29.3743 700.5,33.5C 695.608,27.5551 689.275,24.5551 681.5,24.5C 684.352,22.9235 687.352,21.4235 690.5,20C 679.925,13.2398 669.259,6.73976 658.5,0.5 Z"/></g>
<g><path style="opacity:1" fill="#1796fe" d="M 671.5,1.5 C 685.99,0.503984 700.657,0.170651 715.5,0.5C 711.122,7.37636 705.288,12.7097 698,16.5C 689.074,11.6216 680.241,6.62163 671.5,1.5 Z"/></g>
<g><path style="opacity:1" fill="#ecebe7" d="M 110.5,0.5 C 136.833,0.5 163.167,0.5 189.5,0.5C 222.167,19.8333 254.833,39.1667 287.5,58.5C 286.417,58.4606 285.417,58.1272 284.5,57.5C 282.245,59.6878 280.078,59.3545 278,56.5C 275.977,58.0127 276.144,59.3461 278.5,60.5C 278.192,61.3081 277.692,61.9747 277,62.5C 275.956,61.3774 275.29,60.0441 275,58.5C 273.384,59.5448 271.717,60.5448 270,61.5C 269.667,60.8333 269.333,60.1667 269,59.5C 268.529,61.2464 267.862,62.913 267,64.5C 266.259,65.6405 265.425,65.6405 264.5,64.5C 263.459,66.9913 262.626,66.9913 262,64.5C 260.853,65.4581 259.853,65.1247 259,63.5C 258.586,63.9574 258.086,64.2907 257.5,64.5C 240.703,55.2669 224.036,45.7669 207.5,36C 205.782,35.654 204.115,35.154 202.5,34.5C 201.494,34.9377 201.494,35.6043 202.5,36.5C 201.271,37.2811 199.938,37.7811 198.5,38C 200.256,38.2022 201.922,38.7022 203.5,39.5C 203.154,40.6956 202.654,40.6956 202,39.5C 201.242,41.7695 201.409,43.9361 202.5,46C 200.368,46.918 199.701,48.2513 200.5,50C 196.918,50.5954 196.584,51.9288 199.5,54C 196.417,57.3915 196.75,59.0581 200.5,59C 199.773,60.3988 199.273,61.8988 199,63.5C 198.667,63.1667 198.333,62.8333 198,62.5C 192.306,64.3797 192.806,65.3797 199.5,65.5C 199.719,66.675 199.386,67.675 198.5,68.5C 197.304,68.1543 197.304,67.6543 198.5,67C 195.909,66.5387 193.743,67.3721 192,69.5C 191.667,68.8333 191.333,68.1667 191,67.5C 190.535,68.9308 189.701,70.0975 188.5,71C 191.849,71.0891 192.349,72.2557 190,74.5C 189.667,73.8333 189.333,73.1667 189,72.5C 188.333,74.1667 188.333,75.8333 189,77.5C 189.423,76.0439 190.256,75.5439 191.5,76C 189.785,78.3736 187.785,80.5403 185.5,82.5C 186.85,84.7826 186.517,86.7826 184.5,88.5C 149.167,88.5 113.833,88.5 78.5,88.5C 79.5942,86.6406 80.4275,84.6406 81,82.5C 81.3333,83.1667 81.6667,83.8333 82,84.5C 83.3086,82.1088 84.3086,82.1088 85,84.5C 85.3879,83.572 86.0546,82.9054 87,82.5C 88.6895,83.1495 90.5229,83.1495 92.5,82.5C 92.3505,81.448 92.5172,80.448 93,79.5C 94.5581,80.3452 95.5581,79.6785 96,77.5C 97.1475,78.4581 98.1475,78.1247 99,76.5C 98.9227,77.7376 99.0894,78.7376 99.5,79.5C 100.192,78.9747 100.692,78.3081 101,77.5C 101.853,79.1247 102.853,79.4581 104,78.5C 103.76,76.5335 102.927,74.7002 101.5,73C 101.944,71.2382 102.444,71.4049 103,73.5C 103.309,72.2341 103.809,71.0674 104.5,70C 103.142,69.0656 101.808,68.2323 100.5,67.5C 102.117,66.4107 102.95,64.744 103,62.5C 104.509,61.9103 106.009,61.2436 107.5,60.5C 106.675,59.6143 105.675,59.281 104.5,59.5C 104.389,58.8826 104.056,58.3826 103.5,58C 106.167,57.3333 106.167,56.6667 103.5,56C 104.545,54.3842 105.545,52.7175 106.5,51C 105.906,50.5357 105.239,50.369 104.5,50.5C 105.195,47.7198 106.195,45.0531 107.5,42.5C 107.611,41.8826 107.944,41.3826 108.5,41C 107.328,40.5814 106.328,39.9147 105.5,39C 106.833,38 108.167,37 109.5,36C 106.166,34.9156 102.832,34.0823 99.5,33.5C 101.857,33.6633 104.19,33.4966 106.5,33C 105.167,32.6667 103.833,32.3333 102.5,32C 103.252,31.3292 103.586,30.4959 103.5,29.5C 106.478,27.6523 106.812,25.6523 104.5,23.5C 104.5,23.1667 104.5,22.8333 104.5,22.5C 106.414,21.8153 108.414,21.3153 110.5,21C 108.372,19.2573 107.539,17.0907 108,14.5C 109.487,15.2529 109.654,16.0862 108.5,17C 109.416,17.3742 110.25,17.8742 111,18.5C 112.46,18.0178 113.96,16.8511 115.5,15C 114.643,14.3109 113.977,13.4776 113.5,12.5C 115.03,10.4796 115.697,8.47964 115.5,6.5C 114.965,4.72945 114.131,4.39612 113,5.5C 112.508,4.45104 112.674,3.45104 113.5,2.5C 112.726,1.28882 111.893,1.28882 111,2.5C 110.536,1.90558 110.369,1.23891 110.5,0.5 Z"/></g>
<g><path style="opacity:1" fill="#ff9a4a" d="M 315.5,13.5 C 325.453,11.8747 333.953,14.5414 341,21.5C 341.584,24.2567 341.25,26.9234 340,29.5C 332.706,34.8985 324.872,39.3985 316.5,43C 306.166,45.3781 297.332,42.8781 290,35.5C 289.277,32.6132 289.777,29.9465 291.5,27.5C 299.267,22.2883 307.267,17.6217 315.5,13.5 Z"/></g>
<g><path style="opacity:1" fill="#181819" d="M 52.5,26.5 C 51.1389,24.1495 49.8056,21.8162 48.5,19.5C 50.0174,19.4894 51.1841,18.8228 52,17.5C 56.6667,23.5 61.3333,29.5 66,35.5C 66.1667,38 65,39.1667 62.5,39C 59.2675,34.6724 55.9342,30.5057 52.5,26.5 Z"/></g>
<g><path style="opacity:1" fill="#e7e5e1" d="M 726.5,19.5 C 726.5,28.8333 726.5,38.1667 726.5,47.5C 717.634,52.7658 708.634,57.7658 699.5,62.5C 704.599,54.4339 705.765,45.7672 703,36.5C 702.292,35.6195 701.458,34.9528 700.5,34.5C 700.5,34.1667 700.5,33.8333 700.5,33.5C 709.415,29.3743 718.082,24.7077 726.5,19.5 Z"/></g>
<g><path style="opacity:1" fill="#202021" d="M 85.5,23.5 C 83.6096,23.2965 82.1096,23.9632 81,25.5C 80.4622,23.5269 81.2956,22.5269 83.5,22.5C 84.4164,22.5427 85.0831,22.8761 85.5,23.5 Z"/></g>
<g><path style="opacity:1" fill="#2a2a2a" d="M 104.5,22.5 C 104.5,22.8333 104.5,23.1667 104.5,23.5C 102.61,23.2965 101.11,23.9632 100,25.5C 99.8333,25.1667 99.6667,24.8333 99.5,24.5C 100.668,22.7826 102.335,22.1159 104.5,22.5 Z"/></g>
<g><path style="opacity:1" fill="#c7c7c6" d="M 681.5,24.5 C 689.275,24.5551 695.608,27.5551 700.5,33.5C 700.5,33.8333 700.5,34.1667 700.5,34.5C 699.71,35.4013 698.71,36.0679 697.5,36.5C 690.666,28.2702 682.333,26.4369 672.5,31C 664.586,36.5716 661.92,44.0716 664.5,53.5C 663.833,55.1667 663.167,56.8333 662.5,58.5C 661.833,57.8333 661.167,57.1667 660.5,56.5C 656.913,44.6031 659.913,34.9365 669.5,27.5C 673.239,25.8984 677.239,24.8984 681.5,24.5 Z"/></g>
<g><path style="opacity:1" fill="#171818" d="M 46.5,27.5 C 51.4797,32.1449 56.4797,36.8116 61.5,41.5C 60.8551,42.646 60.0217,43.646 59,44.5C 54.3762,40.4512 49.5429,36.7846 44.5,33.5C 43.3747,31.8712 42.0414,30.3712 40.5,29C 41.6184,27.9264 42.6184,26.7598 43.5,25.5C 44.5178,26.1925 45.5178,26.8592 46.5,27.5 Z"/></g>
<g><path style="opacity:1" fill="#373636" d="M 104.5,23.5 C 106.812,25.6523 106.478,27.6523 103.5,29.5C 104.15,27.5648 104.483,25.5648 104.5,23.5 Z"/></g>
<g><path style="opacity:1" fill="#3b3b3b" d="M 85.5,23.5 C 87.2726,24.3143 87.7726,25.6476 87,27.5C 85.6288,29.0414 84.1288,30.3747 82.5,31.5C 84.4279,29.2192 85.4279,26.5525 85.5,23.5 Z"/></g>
<g><path style="opacity:1" fill="#464545" d="M 95.5,23.5 C 96.1174,23.6107 96.6174,23.944 97,24.5C 97.6667,27.1667 97.6667,29.8333 97,32.5C 95,35.1667 93,35.1667 91,32.5C 90.3333,29.5 90.3333,26.5 91,23.5C 92.6155,22.1991 94.1155,22.1991 95.5,23.5 Z"/></g>
<g><path style="opacity:1" fill="#dfdedb" d="M 95.5,23.5 C 95.6085,25.5138 94.9418,27.1805 93.5,28.5C 91.6558,27.7961 91.1558,26.4628 92,24.5C 93.0113,23.6634 94.1779,23.33 95.5,23.5 Z"/></g>
<g><path style="opacity:1" fill="#323232" d="M 110.5,22.5 C 112.144,22.2865 113.644,22.6198 115,23.5C 114.852,26.1263 115.019,28.6263 115.5,31C 115.331,33.1674 114.164,34.3341 112,34.5C 110.72,34.3865 109.887,33.7199 109.5,32.5C 110.887,32.1928 112.554,32.1928 114.5,32.5C 114.863,30.0885 113.863,28.5885 111.5,28C 114.817,26.9148 115.151,25.4148 112.5,23.5C 109.796,26.3916 109.129,26.0583 110.5,22.5 Z"/></g>
<g><path style="opacity:1" fill="#ff9a4b" d="M 416.5,27.5 C 454.167,27.5 491.833,27.5 529.5,27.5C 543.5,27.5 557.5,27.5 571.5,27.5C 586.5,27.5 601.5,27.5 616.5,27.5C 621.619,26.8969 626.285,27.5636 630.5,29.5C 630.5,40.1667 630.5,50.8333 630.5,61.5C 630.5,62.8333 630.5,64.1667 630.5,65.5C 619.167,65.5 607.833,65.5 596.5,65.5C 560.5,65.5 524.5,65.5 488.5,65.5C 457.5,65.5 426.5,65.5 395.5,65.5C 393.5,65.5 391.5,65.5 389.5,65.5C 389.5,64.5 389.5,63.5 389.5,62.5C 389.5,55.8333 389.5,49.1667 389.5,42.5C 389.5,37.5 389.5,32.5 389.5,27.5C 398.5,27.5 407.5,27.5 416.5,27.5 Z"/></g>
<g><path style="opacity:1" fill="#fefefe" d="M 669.5,27.5 C 659.913,34.9365 656.913,44.6031 660.5,56.5C 657.59,59.6343 653.923,61.801 649.5,63C 643.009,63.9176 636.675,63.4176 630.5,61.5C 630.5,50.8333 630.5,40.1667 630.5,29.5C 643.563,29.8311 656.563,29.1644 669.5,27.5 Z"/></g>
<g><path style="opacity:1" fill="#101011" d="M 697.5,36.5 C 703.856,50.9078 699.523,60.4078 684.5,65C 675,65.9835 668.333,62.1502 664.5,53.5C 661.92,44.0716 664.586,36.5716 672.5,31C 682.333,26.4369 690.666,28.2702 697.5,36.5 Z"/></g>
<g><path style="opacity:1" fill="#e7e7e4" d="M 93.5,28.5 C 95.1765,29.1834 95.8432,30.5168 95.5,32.5C 91.421,32.4662 90.7543,31.1328 93.5,28.5 Z"/></g>
<g><path style="opacity:1" fill="#383838" d="M 82.5,31.5 C 83.9516,32.3019 85.6183,32.8019 87.5,33C 85.1667,33.6667 82.8333,33.6667 80.5,33C 81.0442,32.2828 81.7109,31.7828 82.5,31.5 Z"/></g>
<g><path style="opacity:1" fill="#434242" d="M 103.5,29.5 C 103.586,30.4959 103.252,31.3292 102.5,32C 103.833,32.3333 105.167,32.6667 106.5,33C 104.19,33.4966 101.857,33.6633 99.5,33.5C 100.5,31.8333 101.833,30.5 103.5,29.5 Z"/></g>
<g><path style="opacity:1" fill="#b3b2b0" d="M 700.5,34.5 C 701.458,34.9528 702.292,35.6195 703,36.5C 705.765,45.7672 704.599,54.4339 699.5,62.5C 695.633,66.3498 690.966,68.6831 685.5,69.5C 675.38,70.5892 667.714,66.9225 662.5,58.5C 663.167,56.8333 663.833,55.1667 664.5,53.5C 668.333,62.1502 675,65.9835 684.5,65C 699.523,60.4078 703.856,50.9078 697.5,36.5C 698.71,36.0679 699.71,35.4013 700.5,34.5 Z"/></g>
<g><path style="opacity:1" fill="#161717" d="M 42.5,38.5 C 46.9559,40.8915 51.6226,43.0582 56.5,45C 57.6719,46.8684 57.5053,48.7017 56,50.5C 51.1112,48.2605 46.2778,45.9272 41.5,43.5C 38.8257,42.4982 36.4924,40.9982 34.5,39C 34.7336,37.2676 35.7336,36.4342 37.5,36.5C 39.3002,36.9024 40.9668,37.5691 42.5,38.5 Z"/></g>
<g><path style="opacity:1" fill="#fef6f0" d="M 505.5,37.5 C 507.5,37.5 509.5,37.5 511.5,37.5C 511.21,43.561 511.543,49.561 512.5,55.5C 510.167,56.8333 507.833,56.8333 505.5,55.5C 506.724,52.8687 507.391,50.0354 507.5,47C 507.304,43.6505 506.637,40.4839 505.5,37.5 Z"/></g>
<g><path style="opacity:1" fill="#1a1b1b" d="M 119.5,40.5 C 120.568,39.5655 121.901,39.2322 123.5,39.5C 123.5,42.8333 123.5,46.1667 123.5,49.5C 125.706,50.5841 124.373,50.7508 119.5,50C 120.704,48.6472 121.371,46.9806 121.5,45C 121.431,43.0145 120.765,41.5145 119.5,40.5 Z"/></g>
<g><path style="opacity:1" fill="#ffe5d1" d="M 588.5,37.5 C 589.833,37.5 591.167,37.5 592.5,37.5C 592.5,38.5 592.5,39.5 592.5,40.5C 591.167,40.5 589.833,40.5 588.5,40.5C 588.5,39.5 588.5,38.5 588.5,37.5 Z"/></g>
<g><path style="opacity:1" fill="#fefefd" d="M 612.5,38.5 C 613.5,38.5 614.5,38.5 615.5,38.5C 615.5,42.5 615.5,46.5 615.5,50.5C 614.5,50.5 613.5,50.5 612.5,50.5C 612.5,46.5 612.5,42.5 612.5,38.5 Z"/></g>
<g><path style="opacity:1" fill="#232323" d="M 80.5,39.5 C 88.2407,39.7381 90.2407,43.2381 86.5,50C 84.5273,50.4955 82.5273,50.6621 80.5,50.5C 80.5,46.8333 80.5,43.1667 80.5,39.5 Z"/></g>
<g><path style="opacity:1" fill="#fffaf7" d="M 516.5,54.5 C 516.956,50.8894 516.289,47.5561 514.5,44.5C 515.853,43.4763 516.52,42.143 516.5,40.5C 517.209,39.596 518.209,39.2627 519.5,39.5C 519.328,41.4918 519.995,43.1585 521.5,44.5C 519.571,47.2249 519.071,50.2249 520,53.5C 523.464,55.1275 523.297,56.1275 519.5,56.5C 517.97,56.3601 516.97,55.6935 516.5,54.5 Z"/></g>
<g><path style="opacity:1" fill="#dfdfdd" d="M 82.5,41.5 C 83.5,41.5 84.5,41.5 85.5,41.5C 85.6633,43.8568 85.4966,46.1902 85,48.5C 84.586,48.9574 84.086,49.2907 83.5,49.5C 82.52,46.9135 82.1866,44.2469 82.5,41.5 Z"/></g>
<g><path style="opacity:1" fill="#686868" d="M 138.5,42.5 C 137.943,47.4544 138.276,50.1211 139.5,50.5C 140.833,50.5 142.167,50.5 143.5,50.5C 142.791,51.404 141.791,51.7373 140.5,51.5C 140.5,52.5 140.5,53.5 140.5,54.5C 139.5,54.5 138.5,54.5 137.5,54.5C 137.183,50.2984 137.517,46.2984 138.5,42.5 Z"/></g>
<g><path style="opacity:1" fill="#1f1f20" d="M 138.5,42.5 C 145.363,42.3205 147.029,44.9872 143.5,50.5C 142.167,50.5 140.833,50.5 139.5,50.5C 138.276,50.1211 137.943,47.4544 138.5,42.5 Z"/></g>
<g><path style="opacity:1" fill="#212122" d="M 158.5,42.5 C 160.604,42.2011 162.604,42.5344 164.5,43.5C 163.372,44.2621 162.205,44.9288 161,45.5C 160.798,47.2556 160.298,48.9223 159.5,50.5C 158.52,47.9135 158.187,45.2469 158.5,42.5 Z"/></g>
<g><path style="opacity:1" fill="#1f2020" d="M 129.5,42.5 C 135.313,42.062 136.98,44.562 134.5,50C 128.593,50.7465 126.927,48.2465 129.5,42.5 Z"/></g>
<g><path style="opacity:1" fill="#262627" d="M 149.5,42.5 C 153.349,42.0193 155.349,43.686 155.5,47.5C 153.473,47.3379 151.473,47.5045 149.5,48C 151.078,49.1405 152.744,49.6405 154.5,49.5C 147.369,51.2698 145.703,48.9365 149.5,42.5 Z"/></g>
<g><path style="opacity:1" fill="#fefefe" d="M 389.5,42.5 C 389.5,49.1667 389.5,55.8333 389.5,62.5C 388.193,61.8466 386.86,61.1799 385.5,60.5C 368.013,69.9636 368.346,78.9636 386.5,87.5C 373.01,88.4957 359.344,88.829 345.5,88.5C 337.091,82.8015 336.424,76.3015 343.5,69C 358.98,60.3388 374.313,51.5054 389.5,42.5 Z"/></g>
<g><path style="opacity:1" fill="#fff8f4" d="M 416.5,37.5 C 418.5,37.5 420.5,37.5 422.5,37.5C 422.337,39.8568 422.503,42.1902 423,44.5C 425.139,43.2309 427.305,43.2309 429.5,44.5C 429.878,48.3762 430.878,52.0429 432.5,55.5C 430.167,56.8333 427.833,56.8333 425.5,55.5C 426.575,52.562 426.741,49.562 426,46.5C 425,45.1667 424,45.1667 423,46.5C 422.071,49.7751 422.571,52.7751 424.5,55.5C 422.167,56.8333 419.833,56.8333 417.5,55.5C 418.786,50.189 418.786,44.8556 417.5,39.5C 416.571,40.6888 416.238,42.0222 416.5,43.5C 414.263,42.551 411.929,41.8844 409.5,41.5C 408.974,46.4115 409.641,51.0782 411.5,55.5C 409.167,56.8333 406.833,56.8333 404.5,55.5C 406.359,51.0782 407.026,46.4115 406.5,41.5C 404.071,41.8844 401.737,42.551 399.5,43.5C 399.5,41.8333 399.5,40.1667 399.5,38.5C 405.358,38.8222 411.025,38.4889 416.5,37.5 Z"/></g>
<g><path style="opacity:1" fill="#fef7f2" d="M 436.5,43.5 C 442.937,42.4045 445.937,45.0712 445.5,51.5C 442.753,51.1866 440.086,51.52 437.5,52.5C 439.249,54.5314 441.249,54.8647 443.5,53.5C 444.386,54.325 444.719,55.325 444.5,56.5C 438.008,58.2769 434.341,55.9436 433.5,49.5C 433.467,46.8984 434.467,44.8984 436.5,43.5 Z"/></g>
<g><path style="opacity:1" fill="#fefefe" d="M 453.5,43.5 C 456.654,44.0946 459.654,44.0946 462.5,43.5C 462.5,44.5 462.5,45.5 462.5,46.5C 459.266,46.2366 457.932,47.7366 458.5,51C 458.748,52.7159 459.415,54.2159 460.5,55.5C 458.167,56.8333 455.833,56.8333 453.5,55.5C 456.022,51.5087 456.022,47.5087 453.5,43.5 Z"/></g>
<g><path style="opacity:1" fill="#fef6ef" d="M 466.5,43.5 C 473.278,41.945 476.278,44.6117 475.5,51.5C 472.813,51.3359 470.146,51.5026 467.5,52C 468.167,52.6667 468.833,53.3333 469.5,54C 471.313,53.9536 472.979,54.1203 474.5,54.5C 474.291,55.086 473.957,55.586 473.5,56C 467.372,58.0293 464.038,55.8627 463.5,49.5C 463.628,47.0452 464.628,45.0452 466.5,43.5 Z"/></g>
<g><path style="opacity:1" fill="#fef7f1" d="M 479.5,43.5 C 482.187,43.3359 484.854,43.5026 487.5,44C 488.337,45.0113 488.67,46.1779 488.5,47.5C 486.167,46.8333 483.833,46.1667 481.5,45.5C 481.5,46.5 481.5,47.5 481.5,48.5C 483.564,48.687 485.564,49.187 487.5,50C 488.935,52.2672 488.602,54.2672 486.5,56C 483.833,56.6667 481.167,56.6667 478.5,56C 477.663,54.9887 477.33,53.8221 477.5,52.5C 479.6,52.4772 481.433,53.1439 483,54.5C 484.059,54.3699 484.892,53.8699 485.5,53C 482.62,52.1522 480.12,50.6522 478,48.5C 477.387,46.5048 477.887,44.8381 479.5,43.5 Z"/></g>
<g><path style="opacity:1" fill="#fff4ec" d="M 489.5,43.5 C 491.5,43.5 493.5,43.5 495.5,43.5C 495.5,46.8333 495.5,50.1667 495.5,53.5C 496.833,53.5 498.167,53.5 499.5,53.5C 499.927,50.2123 499.26,47.2123 497.5,44.5C 499.396,43.5344 501.396,43.2011 503.5,43.5C 503.234,47.5705 503.567,51.5705 504.5,55.5C 503.667,55.8333 502.833,56.1667 502,56.5C 498.919,56.4008 495.752,56.0675 492.5,55.5C 491.981,51.3229 490.981,47.3229 489.5,43.5 Z"/></g>
<g><path style="opacity:1" fill="#fef9f5" d="M 525.5,43.5 C 528.187,43.3359 530.854,43.5026 533.5,44C 534.731,45.1827 534.731,46.3493 533.5,47.5C 531.827,45.9137 529.827,45.2471 527.5,45.5C 528.077,48.6449 530.077,50.1449 533.5,50C 535.922,51.888 535.922,53.888 533.5,56C 530.833,56.6667 528.167,56.6667 525.5,56C 524.269,54.8173 524.269,53.6507 525.5,52.5C 527.276,54.4468 529.276,54.7801 531.5,53.5C 529.573,51.8981 527.406,50.5647 525,49.5C 524.322,47.4024 524.489,45.4024 525.5,43.5 Z"/></g>
<g><path style="opacity:1" fill="#fef7f1" d="M 544.5,43.5 C 548.007,42.9935 551.174,43.6602 554,45.5C 554.246,48.8897 554.746,52.223 555.5,55.5C 552.207,55.5348 548.874,56.0348 545.5,57C 541.797,51.1026 543.464,48.6026 550.5,49.5C 550.853,47.3652 550.02,46.0319 548,45.5C 546.7,46.7073 545.2,47.3739 543.5,47.5C 543.433,46.0413 543.766,44.7079 544.5,43.5 Z"/></g>
<g><path style="opacity:1" fill="#fef8f3" d="M 557.5,43.5 C 560.654,44.0946 563.654,44.0946 566.5,43.5C 566.5,44.5 566.5,45.5 566.5,46.5C 565.167,46.5 563.833,46.5 562.5,46.5C 562.073,49.7877 562.74,52.7877 564.5,55.5C 562.167,56.8333 559.833,56.8333 557.5,55.5C 558.76,51.5021 558.76,47.5021 557.5,43.5 Z"/></g>
<g><path style="opacity:1" fill="#fef7f2" d="M 570.5,43.5 C 576.937,42.4045 579.937,45.0712 579.5,51.5C 576.753,51.1866 574.086,51.52 571.5,52.5C 573.249,54.5314 575.249,54.8647 577.5,53.5C 578.386,54.325 578.719,55.325 578.5,56.5C 572.008,58.2769 568.341,55.9436 567.5,49.5C 567.467,46.8984 568.467,44.8984 570.5,43.5 Z"/></g>
<g><path style="opacity:1" fill="#fdf7f2" d="M 586.5,43.5 C 588.5,43.5 590.5,43.5 592.5,43.5C 592.003,47.7592 592.669,51.7592 594.5,55.5C 592.167,56.8333 589.833,56.8333 587.5,55.5C 588.971,51.3076 588.637,47.3076 586.5,43.5 Z"/></g>
<g><path style="opacity:1" fill="#fff7f2" d="M 595.5,43.5 C 599.399,44.1829 603.399,44.3496 607.5,44C 607.932,47.9967 608.932,51.83 610.5,55.5C 608.167,56.8333 605.833,56.8333 603.5,55.5C 604.575,52.562 604.741,49.562 604,46.5C 603,45.1667 602,45.1667 601,46.5C 600.259,49.562 600.425,52.562 601.5,55.5C 599.5,56.8333 597.5,56.8333 595.5,55.5C 596.76,51.5021 596.76,47.5021 595.5,43.5 Z"/></g>
<g><path style="opacity:1" fill="#323232" d="M 91.5,42.5 C 95.938,41.4251 97.938,43.0917 97.5,47.5C 95.712,47.2148 94.0453,47.5481 92.5,48.5C 94.216,48.9972 95.8827,49.3306 97.5,49.5C 93.4945,52.4961 90.8279,51.4961 89.5,46.5C 89.7517,44.9271 90.4183,43.5938 91.5,42.5 Z"/></g>
<g><path style="opacity:1" fill="#323232" d="M 110.5,42.5 C 114.938,41.4251 116.938,43.0917 116.5,47.5C 114.801,47.3398 113.134,47.5065 111.5,48C 113.078,49.1405 114.744,49.6405 116.5,49.5C 112.479,52.6021 110.146,51.6021 109.5,46.5C 109.623,45.0755 109.957,43.7421 110.5,42.5 Z"/></g>
<g><path style="opacity:1" fill="#e0dfdc" d="M 130.5,44.5 C 131.5,44.5 132.5,44.5 133.5,44.5C 133.5,46.1667 133.5,47.8333 133.5,49.5C 132.5,49.5 131.5,49.5 130.5,49.5C 130.5,47.8333 130.5,46.1667 130.5,44.5 Z"/></g>
<g><path style="opacity:1" fill="#d4d3d0" d="M 140.5,44.5 C 141.5,44.5 142.5,44.5 143.5,44.5C 143.884,46.6648 143.217,48.3315 141.5,49.5C 140.548,47.9547 140.215,46.288 140.5,44.5 Z"/></g>
<g><path style="opacity:1" fill="#d6813e" d="M 682.5,40.5 C 683.251,39.4265 684.251,39.2599 685.5,40C 687.833,42.3333 690.167,44.6667 692.5,47C 689.667,49.8333 686.833,52.6667 684,55.5C 683.5,55 683,54.5 682.5,54C 684.167,52.3333 685.833,50.6667 687.5,49C 666.399,47.8663 666.399,46.533 687.5,45C 685.963,43.2927 684.296,41.7927 682.5,40.5 Z"/></g>
<g><path style="opacity:1" fill="#e7e5e1" d="M 424.5,0.5 C 438.167,0.5 451.833,0.5 465.5,0.5C 448.471,8.18583 432.138,17.1858 416.5,27.5C 407.5,27.5 398.5,27.5 389.5,27.5C 389.5,32.5 389.5,37.5 389.5,42.5C 374.313,51.5054 358.98,60.3388 343.5,69C 336.424,76.3015 337.091,82.8015 345.5,88.5C 291.833,88.5 238.167,88.5 184.5,88.5C 186.517,86.7826 186.85,84.7826 185.5,82.5C 187.785,80.5403 189.785,78.3736 191.5,76C 190.256,75.5439 189.423,76.0439 189,77.5C 188.333,75.8333 188.333,74.1667 189,72.5C 189.333,73.1667 189.667,73.8333 190,74.5C 192.349,72.2557 191.849,71.0891 188.5,71C 189.701,70.0975 190.535,68.9308 191,67.5C 191.333,68.1667 191.667,68.8333 192,69.5C 193.743,67.3721 195.909,66.5387 198.5,67C 197.304,67.6543 197.304,68.1543 198.5,68.5C 199.386,67.675 199.719,66.675 199.5,65.5C 192.806,65.3797 192.306,64.3797 198,62.5C 198.333,62.8333 198.667,63.1667 199,63.5C 199.273,61.8988 199.773,60.3988 200.5,59C 196.75,59.0581 196.417,57.3915 199.5,54C 196.584,51.9288 196.918,50.5954 200.5,50C 199.701,48.2513 200.368,46.918 202.5,46C 201.409,43.9361 201.242,41.7695 202,39.5C 202.654,40.6956 203.154,40.6956 203.5,39.5C 201.922,38.7022 200.256,38.2022 198.5,38C 199.938,37.7811 201.271,37.2811 202.5,36.5C 201.494,35.6043 201.494,34.9377 202.5,34.5C 204.115,35.154 205.782,35.654 207.5,36C 224.036,45.7669 240.703,55.2669 257.5,64.5C 258.086,64.2907 258.586,63.9574 259,63.5C 259.853,65.1247 260.853,65.4581 262,64.5C 262.626,66.9913 263.459,66.9913 264.5,64.5C 265.425,65.6405 266.259,65.6405 267,64.5C 267.862,62.913 268.529,61.2464 269,59.5C 269.333,60.1667 269.667,60.8333 270,61.5C 271.717,60.5448 273.384,59.5448 275,58.5C 275.29,60.0441 275.956,61.3774 277,62.5C 277.692,61.9747 278.192,61.3081 278.5,60.5C 276.144,59.3461 275.977,58.0127 278,56.5C 280.078,59.3545 282.245,59.6878 284.5,57.5C 285.417,58.1272 286.417,58.4606 287.5,58.5C 296.43,64.4339 306.097,65.9339 316.5,63C 352.694,42.4062 388.694,21.5728 424.5,0.5 Z"/></g>
<g><path style="opacity:1" fill="#ffa35a" d="M 438.5,45.5 C 439.995,45.4148 440.995,46.0815 441.5,47.5C 440.167,48.8333 438.833,48.8333 437.5,47.5C 437.863,46.8165 438.196,46.1499 438.5,45.5 Z"/></g>
<g><path style="opacity:1" fill="#ff9d50" d="M 467.5,46.5 C 468.978,46.238 470.311,46.5713 471.5,47.5C 470.833,47.8333 470.167,48.1667 469.5,48.5C 468.287,48.2528 467.62,47.5862 467.5,46.5 Z"/></g>
<g><path style="opacity:1" fill="#ffc89d" d="M 516.5,40.5 C 516.52,42.143 515.853,43.4763 514.5,44.5C 516.289,47.5561 516.956,50.8894 516.5,54.5C 515.835,51.1976 514.835,47.8642 513.5,44.5C 514.172,42.8405 515.172,41.5072 516.5,40.5 Z"/></g>
<g><path style="opacity:1" fill="#ffa35a" d="M 572.5,45.5 C 573.995,45.4148 574.995,46.0815 575.5,47.5C 574.167,48.8333 572.833,48.8333 571.5,47.5C 571.863,46.8165 572.196,46.1499 572.5,45.5 Z"/></g>
<g><path style="opacity:1" fill="#181919" d="M 37.5,47.5 C 43.3019,49.1962 49.3019,50.5296 55.5,51.5C 55.7692,53.4286 55.2692,55.0953 54,56.5C 47.79,55.4885 41.6234,54.1552 35.5,52.5C 32.5159,52.2132 31.1826,50.5465 31.5,47.5C 33.5,47.5 35.5,47.5 37.5,47.5 Z"/></g>
<g><path style="opacity:1" fill="#2c2c2c" d="M 107.5,42.5 C 106.195,45.0531 105.195,47.7198 104.5,50.5C 103.5,50.5 102.5,50.5 101.5,50.5C 101.244,48.0628 100.577,45.7294 99.5,43.5C 100.167,42.1667 100.833,42.1667 101.5,43.5C 102.899,48.5293 103.899,48.196 104.5,42.5C 105.5,42.5 106.5,42.5 107.5,42.5 Z"/></g>
<g><path style="opacity:1" fill="#fefefd" d="M 726.5,47.5 C 726.5,54.1667 726.5,60.8333 726.5,67.5C 720.474,69.9314 714.974,73.2648 710,77.5C 708.063,81.4406 708.563,85.1073 711.5,88.5C 698.833,88.5 686.167,88.5 673.5,88.5C 671.782,86.0738 671.282,83.4071 672,80.5C 676.549,76.6759 681.049,73.0092 685.5,69.5C 690.966,68.6831 695.633,66.3498 699.5,62.5C 708.634,57.7658 717.634,52.7658 726.5,47.5 Z"/></g>
<g><path style="opacity:1" fill="#ffa55f" d="M 546.5,51.5 C 547.978,51.238 549.311,51.5713 550.5,52.5C 548.537,55.1939 547.203,54.8606 546.5,51.5 Z"/></g>
<g><path style="opacity:1" fill="#111212" d="M 25.5,53.5 C 25.5,58.1667 25.5,62.8333 25.5,67.5C 36.8333,67.5 48.1667,67.5 59.5,67.5C 59.5,62.5 59.5,57.5 59.5,52.5C 61.1667,52.5 62.8333,52.5 64.5,52.5C 64.5,59.1667 64.5,65.8333 64.5,72.5C 61.1667,72.5 57.8333,72.5 54.5,72.5C 43.1667,72.5 31.8333,72.5 20.5,72.5C 20.5,65.8333 20.5,59.1667 20.5,52.5C 22.4147,52.2155 24.0813,52.5489 25.5,53.5 Z"/></g>
<g><path style="opacity:1" fill="#fefffe" d="M 612.5,53.5 C 613.5,53.5 614.5,53.5 615.5,53.5C 615.5,54.5 615.5,55.5 615.5,56.5C 614.5,56.5 613.5,56.5 612.5,56.5C 612.5,55.5 612.5,54.5 612.5,53.5 Z"/></g>
<g><path style="opacity:1" fill="#80807f" d="M 30.5,58.5 C 30.5,58.1667 30.5,57.8333 30.5,57.5C 32.1667,57.5 33.8333,57.5 35.5,57.5C 42.1667,57.5 48.8333,57.5 55.5,57.5C 55.7845,59.4147 55.4511,61.0813 54.5,62.5C 54.5,61.1667 54.5,59.8333 54.5,58.5C 46.5,58.5 38.5,58.5 30.5,58.5 Z"/></g>
<g><path style="opacity:1" fill="#0b0d0d" d="M 30.5,58.5 C 38.5,58.5 46.5,58.5 54.5,58.5C 54.5,59.8333 54.5,61.1667 54.5,62.5C 46.5,62.5 38.5,62.5 30.5,62.5C 30.5,61.1667 30.5,59.8333 30.5,58.5 Z"/></g>
<g><path style="opacity:1" fill="#e7e5e1" d="M 660.5,56.5 C 661.167,57.1667 661.833,57.8333 662.5,58.5C 667.714,66.9225 675.38,70.5892 685.5,69.5C 681.049,73.0092 676.549,76.6759 672,80.5C 671.282,83.4071 671.782,86.0738 673.5,88.5C 648.833,88.5 624.167,88.5 599.5,88.5C 610.822,79.41 609.822,71.7434 596.5,65.5C 607.833,65.5 619.167,65.5 630.5,65.5C 630.5,64.1667 630.5,62.8333 630.5,61.5C 636.675,63.4176 643.009,63.9176 649.5,63C 653.923,61.801 657.59,59.6343 660.5,56.5 Z"/></g>
<g><path style="opacity:1" fill="#181919" d="M 90.5,59.5 C 92.0615,61.3717 93.0615,63.7051 93.5,66.5C 95.0245,64.5175 96.0245,62.1841 96.5,59.5C 97.48,62.0865 97.8134,64.7531 97.5,67.5C 95.2478,68.3331 93.0811,68.3331 91,67.5C 90.5026,64.854 90.3359,62.1873 90.5,59.5 Z"/></g>
<g><path style="opacity:1" fill="#242424" d="M 104.5,59.5 C 105.675,59.281 106.675,59.6143 107.5,60.5C 106.009,61.2436 104.509,61.9103 103,62.5C 102.95,64.744 102.117,66.4107 100.5,67.5C 100.5,64.8333 100.5,62.1667 100.5,59.5C 101.833,59.5 103.167,59.5 104.5,59.5 Z"/></g>
<g><path style="opacity:1" fill="#282829" d="M 120.5,59.5 C 124.349,59.0193 126.349,60.686 126.5,64.5C 124.473,64.3379 122.473,64.5045 120.5,65C 122.193,66.3475 123.86,66.8475 125.5,66.5C 124.252,68.69 122.586,69.0234 120.5,67.5C 117.848,64.7988 117.848,62.1322 120.5,59.5 Z"/></g>
<g><path style="opacity:1" fill="#124ebf" d="M 389.5,62.5 C 389.5,63.5 389.5,64.5 389.5,65.5C 391.5,65.5 393.5,65.5 395.5,65.5C 422.207,79.1175 450.54,83.7842 480.5,79.5C 478.905,82.2854 477.905,85.2854 477.5,88.5C 447.093,88.8251 416.76,88.4918 386.5,87.5C 368.346,78.9636 368.013,69.9636 385.5,60.5C 386.86,61.1799 388.193,61.8466 389.5,62.5 Z"/></g>
<g><path style="opacity:1" fill="#1d1e1e" d="M 82.5,56.5 C 85.0217,56.1281 87.0217,56.9614 88.5,59C 86.4731,58.5022 84.4731,58.6689 82.5,59.5C 84.2202,60.9197 86.0535,62.253 88,63.5C 88.6838,64.7839 88.5171,65.9505 87.5,67C 85.5,67.6667 83.5,67.6667 81.5,67C 80.2888,66.1072 80.2888,65.2739 81.5,64.5C 83.2495,67.1271 84.9161,67.1271 86.5,64.5C 84.6136,63.5937 82.7803,62.5937 81,61.5C 80.36,59.4567 80.86,57.7901 82.5,56.5 Z"/></g>
<g><path style="opacity:1" fill="#1f1f1f" d="M 109.5,59.5 C 111.48,60.8475 112.647,62.8475 113,65.5C 113.543,63.3686 114.376,61.3686 115.5,59.5C 116.408,62.6138 115.575,65.2805 113,67.5C 110.78,65.3531 109.613,62.6864 109.5,59.5 Z"/></g>
<g><path style="opacity:1" fill="#202121" d="M 128.5,59.5 C 130.284,60.5738 131.451,62.2404 132,64.5C 133.02,63.1095 133.853,61.6095 134.5,60C 135.332,59.3123 135.998,59.479 136.5,60.5C 134.892,63.3821 133.559,66.3821 132.5,69.5C 131.295,71.1376 129.962,71.4709 128.5,70.5C 129.737,69.7193 130.737,68.7193 131.5,67.5C 129.924,65.0207 128.924,62.354 128.5,59.5 Z"/></g>
<g><path style="opacity:1" fill="#fe84be" d="M 395.5,65.5 C 426.5,65.5 457.5,65.5 488.5,65.5C 485.912,69.674 483.579,74.0074 481.5,78.5C 480.833,78.5 480.5,78.8333 480.5,79.5C 450.54,83.7842 422.207,79.1175 395.5,65.5 Z"/></g>
<g><path style="opacity:1" fill="#fefefe" d="M 488.5,65.5 C 524.5,65.5 560.5,65.5 596.5,65.5C 609.822,71.7434 610.822,79.41 599.5,88.5C 573.167,88.5 546.833,88.5 520.5,88.5C 518.154,83.3286 514.154,80.1619 508.5,79C 499.543,77.4391 490.543,77.2724 481.5,78.5C 483.579,74.0074 485.912,69.674 488.5,65.5 Z"/></g>
<g><path style="opacity:1" fill="#fee295" d="M 726.5,67.5 C 726.5,74.5 726.5,81.5 726.5,88.5C 721.5,88.5 716.5,88.5 711.5,88.5C 708.563,85.1073 708.063,81.4406 710,77.5C 714.974,73.2648 720.474,69.9314 726.5,67.5 Z"/></g>
<g><path style="opacity:1" fill="#1997fe" d="M 520.5,88.5 C 506.167,88.5 491.833,88.5 477.5,88.5C 477.905,85.2854 478.905,82.2854 480.5,79.5C 480.5,78.8333 480.833,78.5 481.5,78.5C 490.543,77.2724 499.543,77.4391 508.5,79C 514.154,80.1619 518.154,83.3286 520.5,88.5 Z"/></g>
</svg>
