<?xml version="1.0" encoding="UTF-8"?>
<!DOCTYPE svg PUBLIC "-//W3C//DTD SVG 1.1//EN" "http://www.w3.org/Graphics/SVG/1.1/DTD/svg11.dtd">
<svg xmlns="http://www.w3.org/2000/svg" version="1.1" width="2560px" height="502px" style="shape-rendering:geometricPrecision; text-rendering:geometricPrecision; image-rendering:optimizeQuality; fill-rule:evenodd; clip-rule:evenodd" xmlns:xlink="http://www.w3.org/1999/xlink">
<g><path style="opacity:0.986" fill="#f47f22" d="M 288.5,-0.5 C 289.5,-0.5 290.5,-0.5 291.5,-0.5C 335.414,58.9821 379.581,118.315 424,177.5C 424.684,178.784 424.517,179.951 423.5,181C 411.833,189.5 400.167,198 388.5,206.5C 343.339,146.498 298.339,86.3318 253.5,26C 265.594,17.632 277.261,8.79864 288.5,-0.5 Z"/></g>
<g><path style="opacity:0.987" fill="#f47f22" d="M 207.5,70.5 C 265.246,117.801 322.746,165.467 380,213.5C 380.315,214.908 379.982,216.241 379,217.5C 369.791,227.707 360.957,238.207 352.5,249C 350.369,248.602 348.369,247.602 346.5,246C 290.667,199.5 234.833,153 179,106.5C 178.333,105.833 178.333,105.167 179,104.5C 188.335,93.001 197.835,81.6677 207.5,70.5 Z"/></g>
<g><path style="opacity:0.979" fill="#202224" d="M 1068.5,149.5 C 1077.5,149.5 1086.5,149.5 1095.5,149.5C 1095.33,202.834 1095.5,256.168 1096,309.5C 1122.83,283.333 1149.67,257.167 1176.5,231C 1188.17,230.333 1199.83,230.333 1211.5,231C 1189.79,252.374 1168.46,274.04 1147.5,296C 1171.95,334.624 1196.62,373.124 1221.5,411.5C 1209.94,412.82 1198.44,412.82 1187,411.5C 1167.42,379.332 1147.58,347.332 1127.5,315.5C 1116.85,325.652 1106.35,335.986 1096,346.5C 1095.5,368.497 1095.33,390.497 1095.5,412.5C 1086.5,412.5 1077.5,412.5 1068.5,412.5C 1068.5,324.833 1068.5,237.167 1068.5,149.5 Z"/></g>
<g><path style="opacity:0.997" fill="#202324" d="M 1974.5,149.5 C 1987.5,149.5 2000.5,149.5 2013.5,149.5C 2013.5,163.167 2013.5,176.833 2013.5,190.5C 2005.16,190.334 1996.83,190.5 1988.5,191C 1983.33,192.167 1980.17,195.333 1979,200.5C 1978.5,209.16 1978.33,217.827 1978.5,226.5C 1990.17,226.5 2001.83,226.5 2013.5,226.5C 2013.5,238.833 2013.5,251.167 2013.5,263.5C 2001.83,263.5 1990.17,263.5 1978.5,263.5C 1978.5,313.167 1978.5,362.833 1978.5,412.5C 1962.5,412.5 1946.5,412.5 1930.5,412.5C 1930.33,339.166 1930.5,265.833 1931,192.5C 1936.13,168.538 1950.63,154.205 1974.5,149.5 Z"/></g>
<g><path style="opacity:0.987" fill="#212325" d="M 2034.5,149.5 C 2050.5,149.5 2066.5,149.5 2082.5,149.5C 2082.33,219.501 2082.5,289.501 2083,359.5C 2083.54,365.1 2086.37,368.934 2091.5,371C 2100.11,372.297 2108.78,372.797 2117.5,372.5C 2117.5,385.833 2117.5,399.167 2117.5,412.5C 2104.16,412.667 2090.83,412.5 2077.5,412C 2052.68,406.84 2038.51,391.674 2035,366.5C 2034.5,294.167 2034.33,221.834 2034.5,149.5 Z"/></g>
<g><path style="opacity:0.986" fill="#f48022" d="M 140.5,164.5 C 141.873,164.343 143.207,164.51 144.5,165C 211.748,196.024 278.748,227.524 345.5,259.5C 339.601,273.63 332.934,287.297 325.5,300.5C 257.966,268.772 190.3,237.439 122.5,206.5C 128.494,192.511 134.494,178.511 140.5,164.5 Z"/></g>
<g><path style="opacity:0.977" fill="#202224" d="M 653.5,174.5 C 662.833,174.5 672.167,174.5 681.5,174.5C 681.5,194.5 681.5,214.5 681.5,234.5C 698.17,234.333 714.837,234.5 731.5,235C 723.167,243.333 714.833,251.667 706.5,260C 698.173,260.5 689.84,260.666 681.5,260.5C 681.333,297.502 681.5,334.502 682,371.5C 683.975,379.477 688.808,384.977 696.5,388C 704.113,389.262 711.78,389.762 719.5,389.5C 719.5,397.167 719.5,404.833 719.5,412.5C 709.494,412.666 699.494,412.5 689.5,412C 667.642,406.805 655.809,392.971 654,370.5C 653.5,305.168 653.333,239.834 653.5,174.5 Z"/></g>
<g><path style="opacity:0.987" fill="#202224" d="M 1329.5,220.5 C 1357.76,218.965 1381.26,228.632 1400,249.5C 1406.23,258.287 1410.56,267.954 1413,278.5C 1417.65,304.832 1417.65,331.165 1413,357.5C 1405.06,387.11 1386.22,405.61 1356.5,413C 1328.41,419.102 1303.08,413.436 1280.5,396C 1264.58,380.269 1256.41,361.102 1256,338.5C 1255.16,321.473 1255.5,304.473 1257,287.5C 1264.08,246.585 1288.25,224.251 1329.5,220.5 Z M 1328.5,264.5 C 1351.31,262.474 1364.14,272.807 1367,295.5C 1369.14,312.55 1368.81,329.55 1366,346.5C 1360.71,365.57 1348.21,373.737 1328.5,371C 1314.58,366.73 1306.75,357.23 1305,342.5C 1302.5,323.037 1303.17,303.704 1307,284.5C 1311.18,274.485 1318.34,267.819 1328.5,264.5 Z"/></g>
<g><path style="opacity:0.983" fill="#202224" d="M 1666.5,220.5 C 1718.57,221.396 1747.73,247.729 1754,299.5C 1754.5,310.828 1754.67,322.162 1754.5,333.5C 1715.17,333.5 1675.83,333.5 1636.5,333.5C 1637.88,359.71 1651.71,373.377 1678,374.5C 1694.65,374.791 1708.48,368.791 1719.5,356.5C 1729.95,365.452 1739.95,374.952 1749.5,385C 1730,405.992 1705.83,416.159 1677,415.5C 1655.52,415.927 1636.02,410.094 1618.5,398C 1604.37,385.59 1595.54,370.09 1592,351.5C 1585.96,322.893 1587.96,294.893 1598,267.5C 1611.77,238.539 1634.6,222.872 1666.5,220.5 Z M 1662.5,261.5 C 1690.46,258.8 1705.13,271.466 1706.5,299.5C 1683.17,299.5 1659.83,299.5 1636.5,299.5C 1636.32,280.462 1644.99,267.796 1662.5,261.5 Z"/></g>
<g><path style="opacity:0.987" fill="#202324" d="M 1866.5,220.5 C 1886.09,219.082 1902.76,225.249 1916.5,239C 1904.33,251.167 1892.17,263.333 1880,275.5C 1868.12,263.506 1854.62,261.34 1839.5,269C 1832.11,274.264 1827.61,281.431 1826,290.5C 1825.5,331.165 1825.33,371.832 1825.5,412.5C 1809.5,412.5 1793.5,412.5 1777.5,412.5C 1777.5,349.5 1777.5,286.5 1777.5,223.5C 1793.17,223.5 1808.83,223.5 1824.5,223.5C 1824.33,228.844 1824.5,234.177 1825,239.5C 1836.59,228.121 1850.42,221.788 1866.5,220.5 Z"/></g>
<g><path style="opacity:0.987" fill="#202224" d="M 2201.5,220.5 C 2230.04,219.165 2253.54,229.165 2272,250.5C 2281.61,264.99 2286.61,280.99 2287,298.5C 2288.06,316.907 2287.39,335.241 2285,353.5C 2278.72,385.776 2259.56,405.61 2227.5,413C 2194.04,420.398 2165.87,411.565 2143,386.5C 2135.89,376.601 2131.22,365.601 2129,353.5C 2125.67,329.833 2125.67,306.167 2129,282.5C 2138.3,244.365 2162.46,223.699 2201.5,220.5 Z M 2199.5,264.5 C 2221.37,262.204 2234.2,271.871 2238,293.5C 2240.2,311.55 2239.86,329.55 2237,347.5C 2231.48,366.347 2218.98,374.18 2199.5,371C 2184.84,366.211 2177.01,356.045 2176,340.5C 2173.61,322.041 2174.27,303.708 2178,285.5C 2181.78,274.889 2188.94,267.889 2199.5,264.5 Z"/></g>
<g><path style="opacity:0.987" fill="#202224" d="M 1414.5,224.5 C 1431.57,223.169 1448.74,223.169 1466,224.5C 1478.33,262.167 1490.67,299.833 1503,337.5C 1516.19,299.755 1528.69,261.755 1540.5,223.5C 1557.5,223.5 1574.5,223.5 1591.5,223.5C 1568.97,286.243 1546.13,348.91 1523,411.5C 1516.58,412.157 1510.08,412.491 1503.5,412.5C 1496.92,412.491 1490.42,412.157 1484,411.5C 1461.1,348.952 1437.93,286.619 1414.5,224.5 Z"/></g>
<g><path style="opacity:0.988" fill="#202224" d="M 2559.5,223.5 C 2559.5,225.167 2559.5,226.833 2559.5,228.5C 2540.59,289.6 2521.59,350.767 2502.5,412C 2489.15,412.833 2475.82,412.666 2462.5,411.5C 2449.57,373.204 2436.73,334.87 2424,296.5C 2410.62,334.652 2397.62,372.985 2385,411.5C 2378.24,412.158 2371.41,412.491 2364.5,412.5C 2357.43,412.48 2350.6,411.813 2344,410.5C 2325.06,348.235 2305.89,286.068 2286.5,224C 2303.83,223.5 2321.16,223.333 2338.5,223.5C 2347.7,261.646 2357.54,299.646 2368,337.5C 2380.6,299.859 2393.1,262.193 2405.5,224.5C 2417.5,223.167 2429.5,223.167 2441.5,224.5C 2453.97,261.917 2466.64,299.25 2479.5,336.5C 2489.7,299.229 2499.7,261.895 2509.5,224.5C 2526.15,223.501 2542.82,223.167 2559.5,223.5 Z"/></g>
<g><path style="opacity:0.976" fill="#202224" d="M 547.5,228.5 C 568.924,226.927 589.59,230.094 609.5,238C 615.17,240.833 620.503,244.166 625.5,248C 619.333,254.167 613.167,260.333 607,266.5C 588.37,253.839 567.87,249.339 545.5,253C 522.709,258.418 514.876,272.252 522,294.5C 526.969,300.742 533.469,304.575 541.5,306C 557.151,307.786 572.817,309.453 588.5,311C 625.033,317.564 639.2,339.064 631,375.5C 627.057,387.235 619.891,396.401 609.5,403C 593.453,411.611 576.286,415.778 558,415.5C 538.461,415.793 519.961,411.626 502.5,403C 495.74,398.742 489.407,393.909 483.5,388.5C 489.196,381.97 495.362,375.97 502,370.5C 522.907,388.438 547.074,394.938 574.5,390C 587.531,388.744 597.365,382.577 604,371.5C 610.295,349.597 602.129,337.097 579.5,334C 565.478,332.887 551.478,331.554 537.5,330C 499.863,323.002 485.696,300.836 495,263.5C 503.092,246.089 516.592,235.255 535.5,231C 539.665,230.295 543.665,229.461 547.5,228.5 Z"/></g>
<g><path style="opacity:0.982" fill="#202224" d="M 791.5,228.5 C 811.427,226.741 830.76,229.241 849.5,236C 866.862,244.875 876.695,259.042 879,278.5C 879.5,323.165 879.667,367.832 879.5,412.5C 870.5,412.5 861.5,412.5 852.5,412.5C 852.666,407.156 852.499,401.823 852,396.5C 837.602,410.525 820.269,416.858 800,415.5C 781.69,416.468 765.19,411.635 750.5,401C 736.836,386.051 732.003,368.551 736,348.5C 739.701,331.796 749.534,320.296 765.5,314C 772.244,311.317 779.244,309.651 786.5,309C 808.497,308.5 830.497,308.333 852.5,308.5C 853.386,295.525 851.886,282.859 848,270.5C 841.264,259.706 831.43,253.872 818.5,253C 808.122,252.162 797.788,252.495 787.5,254C 776.107,256.695 767.107,262.862 760.5,272.5C 754.217,267.72 748.384,262.387 743,256.5C 742.333,255.5 742.333,254.5 743,253.5C 755.757,238.372 771.924,230.039 791.5,228.5 Z M 790.5,329.5 C 811.167,329.5 831.833,329.5 852.5,329.5C 853.114,343.013 851.947,356.346 849,369.5C 844.24,379.584 836.407,386.084 825.5,389C 810.077,392.557 794.743,392.223 779.5,388C 765.184,381.875 759.351,371.042 762,355.5C 762.901,347.187 766.735,340.687 773.5,336C 779.02,333.11 784.686,330.943 790.5,329.5 Z"/></g>
<g><path style="opacity:0.973" fill="#202224" d="M 971.5,228.5 C 1000.29,224.743 1024.29,233.576 1043.5,255C 1037.33,261.167 1031.17,267.333 1025,273.5C 1009.74,255.304 990.578,249.137 967.5,255C 945.86,263.404 933.693,279.237 931,302.5C 928.936,317.547 929.27,332.547 932,347.5C 941.838,382.628 964.671,396.128 1000.5,388C 1010.19,383.899 1018.36,377.732 1025,369.5C 1030.7,375.532 1036.7,381.199 1043,386.5C 1037.92,394.57 1031.09,401.07 1022.5,406C 997.828,417.804 972.828,418.471 947.5,408C 922.26,394.4 907.76,373.234 904,344.5C 899.4,316.956 903.067,290.623 915,265.5C 927.974,244.26 946.807,231.927 971.5,228.5 Z"/></g>
<g><path style="opacity:0.987" fill="#f48022" d="M 102.5,265.5 C 176.297,280.892 249.964,296.726 323.5,313C 320.106,327.078 316.94,341.245 314,355.5C 312.274,356.576 310.441,356.743 308.5,356C 237.194,340.872 165.861,325.872 94.5,311C 93.9415,310.275 93.6082,309.442 93.5,308.5C 96.6305,294.18 99.6305,279.847 102.5,265.5 Z"/></g>
<g><path style="opacity:0.999" fill="#bbbbbb" d="M -0.5,322.5 C 14.5,322.5 29.5,322.5 44.5,322.5C 44.5,367.167 44.5,411.833 44.5,456.5C 148.833,456.5 253.167,456.5 357.5,456.5C 357.5,411.833 357.5,367.167 357.5,322.5C 372.833,322.5 388.167,322.5 403.5,322.5C 403.5,382.167 403.5,441.833 403.5,501.5C 268.833,501.5 134.167,501.5 -0.5,501.5C -0.5,441.833 -0.5,382.167 -0.5,322.5 Z"/></g>
<g><path style="opacity:0.992" fill="#f38022" d="M 88.5,367.5 C 163.833,367.5 239.167,367.5 314.5,367.5C 314.5,382.5 314.5,397.5 314.5,412.5C 239.167,412.5 163.833,412.5 88.5,412.5C 88.5,397.5 88.5,382.5 88.5,367.5 Z"/></g>
</svg>
